<?xml version="1.0" standalone="no"?>
<!DOCTYPE svg PUBLIC "-//W3C//DTD SVG 20010904//EN"
 "http://www.w3.org/TR/2001/REC-SVG-20010904/DTD/svg10.dtd">
<svg version="1.0" xmlns="http://www.w3.org/2000/svg"
 width="700.000000pt" height="700.000000pt" viewBox="0 0 700.000000 700.000000"
 preserveAspectRatio="xMidYMid meet">
<metadata>
Created by potrace 1.11, written by Peter Selinger 2001-2013
</metadata>
<g transform="translate(0.000000,700.000000) scale(0.100000,-0.100000)"
fill="#000000" stroke="none">
<path d="M3397 6864 c-1 -1 -33 -4 -72 -8 -109 -8 -287 -47 -310 -67 -5 -5
-15 -9 -23 -9 -43 0 -285 -140 -372 -215 -121 -104 -232 -242 -303 -375 -71
-132 -102 -226 -143 -425 -3 -16 -7 -192 -9 -390 l-2 -360 -444 -2 c-244 -1
-460 -2 -480 -2 -34 -1 -41 -7 -138 -136 -57 -76 -99 -141 -95 -147 4 -7 3 -8
-4 -4 -9 5 -12 -515 -12 -2122 0 -2365 -6 -2174 66 -2273 42 -58 86 -92 156
-120 l53 -22 2165 0 2165 0 60 23 c82 32 163 113 195 195 l23 60 1 2129 1
2129 -108 144 -107 143 -68 1 c-37 0 -248 1 -469 1 -222 0 -403 3 -404 7 0 3
-2 161 -3 351 -4 365 -6 401 -36 521 -107 420 -415 759 -820 901 -87 30 -213
57 -297 63 -130 10 -163 11 -166 9z m68 -464 c0 -1 23 -3 50 -4 28 -2 51 -5
53 -6 3 -3 9 -5 54 -14 22 -5 35 -12 31 -19 -3 -5 -1 -7 4 -4 27 17 171 -73
251 -156 23 -24 42 -49 42 -56 0 -6 3 -11 8 -11 15 0 80 -142 98 -215 4 -16 9
-37 11 -45 3 -13 7 -752 4 -831 l-1 -26 -630 -1 -630 0 -1 27 c-4 114 0 794 5
826 8 49 26 116 34 130 4 6 7 16 8 23 1 7 23 46 48 86 46 74 139 169 192 196
16 8 31 17 34 21 12 13 81 39 90 34 6 -3 10 -2 10 4 0 12 58 29 137 39 49 7
98 8 98 2z"/>
</g>
</svg>
